<?xml version="1.0" encoding="utf-8"?>
<svg width="3998px" height="2000px" viewBox="0 0 3998 2000" color="red" version="1.1" xmlns:xlink="http://www.w3.org/1999/xlink" xmlns="http://www.w3.org/2000/svg">
  <defs>
    <path d="M3998 0L3998 0L3998 2000L0 2000L0 0L3998 0Z" id="path_1" />
    <clipPath id="clip_1">
      <use xlink:href="#path_1" clip-rule="evenodd" fill-rule="evenodd" />
    </clipPath>
  </defs>
  <g id="background1">
    <path d="M3998 0L3998 0L3998 2000L0 2000L0 0L3998 0Z" id="background1" fill="none" stroke="none" />
    <g id="Group" transform="translate(0 1.5)" opacity="0.3" clip-path="url(#clip_1)">
      <path d="M0 998.5C0 447.044 447.044 0 998.5 0C1549.96 0 1997 447.044 1997 998.5C1997 1549.96 1549.96 1997 998.5 1997C447.044 1997 0 1549.96 0 998.5Z" id="Circle" fill="none" fill-rule="evenodd" stroke="#B3D420" stroke-width="3" />
      <path d="M1597 998.5C1597 1550.29 1239.2 1997 798.5 1997C357.8 1997 0 1550.29 0 998.5C0 446.714 357.8 0 798.5 0C1239.2 0 1597 446.714 1597 998.5L1597 998.5Z" id="Shape" fill="none" stroke="#B3D420" stroke-width="3" />
      <path d="M1197 998.5C1197 1274.42 1129.89 1524.14 1021.48 1704.84C913.04 1885.56 763.45 1997 598.5 1997C433.55 1997 283.96 1885.56 175.52 1704.84C67.1101 1524.14 0 1274.42 0 998.5C0 722.583 67.1101 472.859 175.52 292.165C283.96 111.441 433.55 0 598.5 0C763.45 0 913.04 111.441 1021.48 292.165C1129.89 472.859 1197 722.583 1197 998.5L1197 998.5Z" id="Shape" fill="none" stroke="#B3D420" stroke-width="3" />
      <path d="M797 998.5C797 1274.5 752.25 1524.3 679.95 1705.05C643.8 1795.43 600.79 1868.47 553.11 1918.88C505.43 1969.3 453.18 1997 398.5 1997C343.82 1997 291.57 1969.3 243.89 1918.88C196.21 1868.47 153.2 1795.43 117.05 1705.05C44.75 1524.3 0 1274.5 0 998.5C0 722.5 44.75 472.697 117.05 291.95C153.2 201.573 196.21 128.535 243.89 78.1156C291.57 27.6997 343.82 0 398.5 0C453.18 0 505.43 27.6997 553.11 78.1156C600.79 128.535 643.8 201.573 679.95 291.95C752.25 472.697 797 722.5 797 998.5L797 998.5Z" id="Shape" fill="none" stroke="#B3D420" stroke-width="3" />
      <path d="M397 998.5C397 1274.57 374.62 1524.47 338.45 1705.31C320.36 1795.75 298.84 1868.83 274.99 1919.27C263.07 1944.5 250.59 1963.98 237.73 1977.14C224.88 1990.29 211.76 1997 198.5 1997C185.24 1997 172.12 1990.29 159.27 1977.14C146.41 1963.98 133.93 1944.5 122.01 1919.27C98.1599 1868.83 76.6399 1795.75 58.55 1705.31C22.38 1524.47 0 1274.57 0 998.5C0 722.426 22.38 472.529 58.55 291.687C76.6399 201.254 98.1599 128.168 122.01 77.7262C133.93 52.5014 146.41 33.0197 159.27 19.8649C172.12 6.71261 185.24 0 198.5 0C211.76 0 224.88 6.71261 237.73 19.8649C250.59 33.0197 263.07 52.5014 274.99 77.7262C298.84 128.168 320.36 201.254 338.45 291.687C374.62 472.529 397 722.426 397 998.5L397 998.5Z" id="Shape" fill="none" stroke="#B3D420" stroke-width="3" />
    </g>
  </g>
</svg>