<svg width='100%' height="100%"  viewBox="0 0 1278 1278" fill="none" xmlns="http://www.w3.org/2000/svg">
<g opacity="0.3">
<path d="M954.662 554.209C993.742 700.056 993.63 841.532 961.933 952.339C930.226 1063.18 867.015 1143.07 780.085 1166.36C693.155 1189.65 598.469 1152.07 515.589 1071.94C432.735 991.823 361.901 869.358 322.821 723.51C283.741 577.662 283.853 436.187 315.55 325.38C347.257 214.539 410.468 134.652 497.398 111.359C584.329 88.0661 679.014 125.645 761.894 205.782C844.748 285.895 915.582 408.361 954.662 554.209Z" stroke="#B3D420" stroke-width="3"/>
<path d="M954.863 723.282C915.784 869.129 844.949 991.595 762.095 1071.71C679.215 1151.84 584.53 1189.42 497.599 1166.13C410.669 1142.84 347.459 1062.95 315.751 952.11C284.054 841.303 283.942 699.828 323.022 553.98C362.102 408.132 432.936 285.667 515.791 205.554C598.67 125.417 693.356 87.8377 780.286 111.131C867.216 134.424 930.427 214.311 962.134 325.151C993.832 435.959 993.943 577.434 954.863 723.282Z" stroke="#B3D420" stroke-width="3"/>
<path d="M922.121 802.058C846.625 932.822 746.508 1032.78 645.742 1088.72C544.945 1144.68 443.76 1156.47 365.82 1111.47C287.881 1066.47 247.5 972.945 245.561 857.675C243.623 742.44 280.131 605.757 355.628 474.993C431.124 344.23 531.241 244.27 632.007 188.331C732.803 132.376 833.989 120.583 911.929 165.582C989.868 210.58 1030.25 304.106 1032.19 419.376C1034.13 534.611 997.617 671.295 922.121 802.058Z" stroke="#B3D420" stroke-width="3"/>
<path d="M869.895 869.984C763.127 976.752 640.55 1047.39 528.739 1075.35C416.895 1103.31 316.105 1088.51 252.468 1024.87C188.83 961.234 174.032 860.444 201.993 748.6C229.946 636.79 300.587 514.213 407.355 407.445C514.123 300.677 636.7 230.036 748.51 202.083C860.354 174.122 961.144 188.92 1024.78 252.558C1088.42 316.195 1103.22 416.985 1075.26 528.829C1047.3 640.64 976.663 763.216 869.895 869.984Z" stroke="#B3D420" stroke-width="3"/>
<path d="M802.057 921.548C671.293 997.044 534.61 1033.55 419.374 1031.61C304.104 1029.67 210.579 989.295 165.58 911.355C120.582 833.416 132.374 732.23 188.33 631.434C244.269 530.668 344.228 430.551 474.992 355.054C605.755 279.558 742.439 243.049 857.674 244.988C972.944 246.927 1066.47 287.307 1111.47 365.247C1156.47 443.186 1144.67 544.372 1088.72 645.168C1032.78 745.934 932.82 846.051 802.057 921.548Z" stroke="#B3D420" stroke-width="3"/>
<path d="M723.389 954.638C577.541 993.717 436.066 993.606 325.259 961.908C214.418 930.201 134.531 866.991 111.238 780.06C87.945 693.13 125.524 598.444 205.661 515.565C285.774 432.71 408.24 361.876 554.088 322.796C699.935 283.717 841.411 283.828 952.218 315.526C1063.06 347.233 1142.95 410.443 1166.24 497.374C1189.53 584.304 1151.95 678.99 1071.81 761.869C991.702 844.724 869.237 915.558 723.389 954.638Z" stroke="#B3D420" stroke-width="3"/>
<path d="M922.12 474.993C997.616 605.756 1034.13 742.44 1032.19 857.675C1030.25 972.945 989.867 1066.47 911.928 1111.47C833.988 1156.47 732.802 1144.68 632.006 1088.72C531.24 1032.78 431.123 932.821 355.627 802.058C280.13 671.294 243.622 534.611 245.56 419.375C247.499 304.105 287.88 210.58 365.819 165.581C443.759 120.583 544.944 132.375 645.741 188.331C746.507 244.27 846.624 344.229 922.12 474.993Z" stroke="#B3D420" stroke-width="3"/>
<path d="M870.01 407.703C976.778 514.471 1047.42 637.048 1075.37 748.858C1103.33 860.703 1088.53 961.493 1024.9 1025.13C961.259 1088.77 860.469 1103.57 748.625 1075.6C636.815 1047.65 514.238 977.011 407.47 870.243C300.702 763.475 230.061 640.898 202.108 529.088C174.147 417.243 188.945 316.453 252.583 252.816C316.22 189.179 417.01 174.38 528.854 202.341C640.665 230.294 763.242 300.935 870.01 407.703Z" stroke="#B3D420" stroke-width="3"/>
<path d="M802.085 354.928C932.849 430.424 1032.81 530.541 1088.75 631.307C1144.7 732.104 1156.49 833.289 1111.5 911.229C1066.5 989.168 972.973 1029.55 857.703 1031.49C742.467 1033.43 605.784 996.918 475.02 921.421C344.257 845.925 244.297 745.808 188.359 645.042C132.403 544.245 120.61 443.06 165.609 365.12C210.607 287.181 304.133 246.8 419.403 244.861C534.638 242.923 671.322 279.431 802.085 354.928Z" stroke="#B3D420" stroke-width="3"/>
<path d="M723.307 322.735C869.155 361.815 991.62 432.649 1071.73 515.504C1151.87 598.383 1189.45 693.069 1166.16 779.999C1142.86 866.93 1062.98 930.14 952.135 961.847C841.328 993.545 699.853 993.656 554.005 954.577C408.158 915.497 285.692 844.663 205.579 761.808C125.442 678.929 87.8629 584.243 111.156 497.313C134.449 410.382 214.336 347.172 325.177 315.465C435.984 283.767 577.459 283.656 723.307 322.735Z" stroke="#B3D420" stroke-width="3"/>
</g>
</svg>
