<?xml version="1.0" encoding="utf-8"?>
<svg width="4007px" height="3947px" viewBox="0 0 4007 3947" version="1.1" xmlns:xlink="http://www.w3.org/1999/xlink" xmlns="http://www.w3.org/2000/svg">
  <defs>
    <path d="M4007 0L4007 0L4007 3947L0 3947L0 0L4007 0Z" id="path_1" />
    <clipPath id="clip_1">
      <use xlink:href="#path_1" clip-rule="evenodd" fill-rule="evenodd" />
    </clipPath>
  </defs>
  <g id="background2">
    <path d="M4007 0L4007 0L4007 3947L0 3947L0 0L4007 0Z" id="background2" fill="none" stroke="none" />
    <g id="Group" opacity="0.3" clip-path="url(#clip_1)">
      <path d="M861.414 1817.75C1153.67 1965.25 1454.07 2027.68 1703.45 2009.44C1952.86 1991.19 2150.96 1892.3 2239.19 1717.48C2327.42 1542.66 2289.31 1324.56 2155.84 1113.07C2022.39 901.62 1793.74 697.03 1501.48 549.53C1209.22 402.03 908.834 339.6 659.454 357.84C410.034 376.09 211.934 474.98 123.704 649.8C35.4726 824.62 73.5856 1042.73 207.054 1254.21C340.504 1465.67 569.154 1670.25 861.414 1817.75L861.414 1817.75Z" id="Shape" fill="none" stroke="#B3D420" stroke-width="3" />
      <path d="M472.284 1223.54C490.664 1550.39 586.804 1841.76 727.294 2048.6C867.804 2255.48 1052.49 2377.6 1248 2366.6C1443.52 2355.6 1613.35 2213.54 1729.76 1992.21C1846.16 1770.91 1909.01 1470.6 1890.62 1143.74C1872.24 816.89 1776.1 525.53 1635.61 318.68C1495.1 111.801 1310.41 -10.314 1114.9 0.685059C919.384 11.6851 749.554 153.745 633.144 375.08C516.744 596.38 453.894 896.69 472.284 1223.54L472.284 1223.54Z" id="Shape" fill="none" stroke="#B3D420" stroke-width="3" />
      <path d="M359.964 713.18C34.7935 1281.41 139.96 1952.39 593.914 2212.16C1047.87 2471.93 1679.64 2222.66 2004.81 1654.43C2329.97 1086.2 2224.81 415.22 1770.85 155.446C1316.89 -104.327 685.124 144.945 359.964 713.18L359.964 713.18Z" id="Shape" fill="none" stroke="#B3D420" stroke-width="3" />
      <path d="M1285.05 2125.79C1935.88 2054.85 2416.9 1575.38 2360.23 1055.43C2303.57 535.48 1730.55 170.887 1079.72 241.82C428.884 312.75 -52.1334 792.23 4.53461 1312.18C61.2036 1832.13 634.214 2196.72 1285.05 2125.79L1285.05 2125.79Z" id="Shape" fill="none" stroke="#B3D420" stroke-width="3" />
      <path d="M851.824 1312.49C970.364 1617.78 1114.78 1879.69 1252.41 2056.36C1321.23 2144.71 1388.3 2211.67 1449.53 2252.09C1510.8 2292.54 1565.91 2306.23 1611.04 2288.71C1656.17 2271.19 1687.6 2223.89 1705.52 2152.69C1723.43 2081.54 1727.74 1986.87 1718.92 1875.23C1701.26 1651.97 1631.1 1361.23 1512.56 1055.94C1394.03 750.66 1249.61 488.74 1111.98 312.07C1043.16 223.72 976.094 156.766 914.864 116.342C853.594 75.892 798.474 62.201 753.344 79.7241C708.214 97.2471 676.784 144.542 658.864 215.74C640.954 286.89 636.644 381.56 645.474 493.2C663.124 716.46 733.294 1007.2 851.824 1312.49L851.824 1312.49Z" id="Shape" fill="none" stroke="#B3D420" stroke-width="3" />
    </g>
  </g>
</svg>